<svg width="46" height="39" viewBox="0 0 46 39" fill="none" xmlns="http://www.w3.org/2000/svg">
<g id="Isolation_Mode" clip-path="url(#clip0_15098_158940)">
<g id="Group">
<g id="Group_2">
<g id="Group_3">
<path id="Vector" d="M32.0091 23.0602V13.6902H28.8891H16.7691H13.6491V23.0602H7.53906V32.4002H10.5291V35.3302H19.8891H25.7691H35.1291V32.4002H38.1191V23.0602H32.0091Z" fill="#684B9B"/>
<path id="Vector_2" d="M32.0091 20.1902V29.5502H28.8891H16.7691H13.6491V20.1902H7.53906V10.8502H10.5291V7.92017H19.8891H25.7691H35.1291V10.8502H38.1191V20.1902H32.0091Z" fill="#3C3485"/>
</g>
<g id="Group_4">
<path id="Vector_3" d="M15.4773 9.46008V6.67008H12.6073V3.84008H9.77734V0.830078H12.6073H15.6173V3.62008H18.4873V6.62008V9.46008H15.4773Z" fill="#006CA5"/>
<path id="Vector_4" d="M30.178 9.46008V6.67008H33.048V3.84008H35.878V0.830078H33.048H30.038V3.62008H27.168V6.62008V9.46008H30.178Z" fill="#006CA5"/>
</g>
<g id="Group_5">
<path id="Vector_5" d="M36.8867 32.4001H39.6667V35.2701H42.4967V38.1001H45.5067V35.2701V32.2601H42.7267V29.3901H39.7167H36.8867V32.4001Z" fill="#006CA5"/>
<path id="Vector_6" d="M36.8086 20.1902H39.5886V23.0602H42.4286V25.8902H45.4286V23.0602V20.0502H42.6486V17.1802H39.6386H36.8086V20.1902Z" fill="#3C3485"/>
<path id="Vector_7" d="M8.77844 32.4001H5.98844V35.2701H3.15844V38.1001H0.148438V35.2701V32.2601H2.93844V29.3901H5.93844H8.77844V32.4001Z" fill="#006CA5"/>
<path id="Vector_8" d="M8.85656 20.1902H6.06656V23.0602H3.23656V25.8902H0.226562V23.0602V20.0502H3.01656V17.1802H6.01656H8.85656V20.1902Z" fill="#3C3485"/>
</g>
</g>
<g id="Group_6">
<path id="Vector_9" d="M18.46 10.8701H16V13.3301H18.46V10.8701Z" fill="white"/>
<path id="Vector_10" d="M29.6592 10.8701H27.1992V13.3301H29.6592V10.8701Z" fill="white"/>
</g>
<path id="Vector_11" d="M25.9797 17.8401H19.6797V18.6401H25.9797V17.8401Z" fill="white"/>
</g>
<g id="Group_7">
<path id="Vector_12" d="M16.8792 26.27H14.6992V31.55H16.8792V26.27Z" fill="white"/>
<path id="Vector_13" d="M20.3988 26.27H18.2188V31.55H20.3988V26.27Z" fill="white"/>
<path id="Vector_14" d="M23.9183 26.27H21.7383V31.55H23.9183V26.27Z" fill="white"/>
<path id="Vector_15" d="M27.4378 26.27H25.2578V31.55H27.4378V26.27Z" fill="white"/>
<path id="Vector_16" d="M30.9573 26.27H28.7773V31.55H30.9573V26.27Z" fill="white"/>
</g>
</g>
<defs>
<clipPath id="clip0_15098_158940">
<rect width="45.36" height="37.27" fill="white" transform="translate(0.148438 0.830078)"/>
</clipPath>
</defs>
</svg>
