<svg width="43" height="47" viewBox="0 0 43 47" fill="none" xmlns="http://www.w3.org/2000/svg">
<g id="Isolation_Mode" clip-path="url(#clip0_15098_158883)">
<g id="Group">
<g id="Group_2">
<path id="Vector" d="M6.86719 27.31V24.77H0.457188V27.31H6.86719Z" fill="#65469C"/>
<path id="Vector_2" d="M10.5859 26.5001V23.3501H5.30594V26.5001H10.5859Z" fill="#B22980"/>
<path id="Vector_3" d="M14.2578 24.07V21.53H7.84781V24.07H14.2578Z" fill="#B22980"/>
</g>
<g id="Group_3">
<path id="Vector_4" d="M6.86719 35.02V32.48H0.457188V35.02H6.86719Z" fill="#65469C"/>
<path id="Vector_5" d="M10.5859 34.2101V31.0601H5.30594V34.2101H10.5859Z" fill="#B22980"/>
<path id="Vector_6" d="M14.2656 31.78V29.24H7.85563V31.78H14.2656Z" fill="#B22980"/>
</g>
</g>
<g id="Group_4">
<g id="Group_5">
<path id="Vector_7" d="M42.1484 27.31V24.77H35.7384V27.31H42.1484Z" fill="#65469C"/>
<path id="Vector_8" d="M37.2969 26.5101V23.3601H32.0169V26.5101H37.2969Z" fill="#B22980"/>
<path id="Vector_9" d="M34.7578 24.07V21.53H28.3478V24.07H34.7578Z" fill="#B22980"/>
</g>
<g id="Group_6">
<path id="Vector_10" d="M42.1484 35.02V32.48H35.7384V35.02H42.1484Z" fill="#65469C"/>
<path id="Vector_11" d="M37.2969 34.2201V31.0701H32.0169V34.2201H37.2969Z" fill="#B22980"/>
<path id="Vector_12" d="M34.7578 31.78V29.24H28.3478V31.78H34.7578Z" fill="#B22980"/>
</g>
</g>
<g id="Group_7">
<g id="Group_8">
<path id="Vector_13" d="M13.5577 8.63V5.84H10.6877V3.01H7.84766V0H10.6877H13.6877V2.79H16.5577V5.79V8.63H13.5577Z" fill="#65469C"/>
<path id="Vector_14" d="M10.6877 4.7H16.5577V2.79H13.6877V0H7.84766V3.01H10.6877V4.7Z" fill="#F3ED6A"/>
<path id="Vector_15" d="M28.2483 8.63V5.84H31.1183V3.01H33.9483V0H31.1183H28.1083V2.79H25.2383V5.79V8.63H28.2483Z" fill="#65469C"/>
<path id="Vector_16" d="M31.1183 4.7V3.01H33.9483V0H28.1083V2.79H25.2383V4.7H31.1183Z" fill="#F3ED6A"/>
</g>
<path id="Vector_17" d="M30.0794 20.6401V30.0001H26.9594H14.8394H11.7194V20.6401H5.60938V11.2901H8.59938V8.37012H17.9694H23.8394H33.2094V11.2901H36.1994V20.6401H30.0794Z" fill="#217EC2"/>
<path id="Vector_18" d="M33.1977 8.37012H8.59766V10.5101H33.1977V8.37012Z" fill="#B22980"/>
<path id="Vector_19" d="M5.60938 17.3V20.64H11.7194V30H30.0794V20.64H36.1994V17.3H5.60938Z" fill="#65469C"/>
<path id="Vector_20" d="M33.2591 27.6799H8.53906V29.9999H33.2591V27.6799Z" fill="#B22980"/>
<g id="Group_9">
<g id="Group_10">
<path id="Vector_21" d="M8.40781 41.6499H5.25781V46.9299H8.40781V41.6499Z" fill="#65469C"/>
<path id="Vector_22" d="M12.4462 29.3999H9.90625V35.8099H12.4462V29.3999Z" fill="#B22980"/>
<path id="Vector_23" d="M11.6383 34.25H8.48828V39.53H11.6383V34.25Z" fill="#B22980"/>
<path id="Vector_24" d="M9.20797 36.7998H6.66797V43.2098H9.20797V36.7998Z" fill="#B22980"/>
</g>
<g id="Group_11">
<path id="Vector_25" d="M33.9398 46.9299H37.0898V41.6499H33.9398V46.9299Z" fill="#65469C"/>
<path id="Vector_26" d="M29.8975 35.8098H32.4375V29.3998H29.8975V35.8098Z" fill="#B22980"/>
<path id="Vector_27" d="M30.6977 39.5398H33.8477V34.2598H30.6977V39.5398Z" fill="#B22980"/>
<path id="Vector_28" d="M33.1397 43.2H35.6797V36.79H33.1397V43.2Z" fill="#B22980"/>
</g>
<g id="Group_12">
<path id="Vector_29" d="M27.2758 46.9299H30.4258V41.6499H27.2758V46.9299Z" fill="#65469C"/>
<path id="Vector_30" d="M23.2256 35.8098H25.7656V29.3998H23.2256V35.8098Z" fill="#B22980"/>
<path id="Vector_31" d="M24.0375 39.5398H27.1875V34.2598H24.0375V39.5398Z" fill="#B22980"/>
<path id="Vector_32" d="M26.4678 43.2H29.0078V36.79H26.4678V43.2Z" fill="#B22980"/>
</g>
<g id="Group_13">
<path id="Vector_33" d="M14.857 41.6499H11.707V46.9299H14.857V41.6499Z" fill="#65469C"/>
<path id="Vector_34" d="M18.8955 29.3999H16.3555V35.8099H18.8955V29.3999Z" fill="#B22980"/>
<path id="Vector_35" d="M18.0953 34.25H14.9453V39.53H18.0953V34.25Z" fill="#B22980"/>
<path id="Vector_36" d="M15.6572 36.7998H13.1172V43.2098H15.6572V36.7998Z" fill="#B22980"/>
</g>
</g>
</g>
<g id="Group_14">
<path id="Vector_37" d="M18.2864 9.71997H15.5664V12.44H18.2864V9.71997Z" fill="white"/>
<path id="Vector_38" d="M26.2356 9.71997H23.5156V12.44H26.2356V9.71997Z" fill="white"/>
</g>
<path id="Vector_39" d="M25.8758 14.99H15.9258V15.74H25.8758V14.99Z" fill="white"/>
<g id="Group_15">
<path id="Vector_40" d="M14.3987 13.52H9.21875V15.42H14.3987V13.52Z" fill="#CF2A51"/>
<path id="Vector_41" d="M32.2972 13.52H27.1172V15.42H32.2972V13.52Z" fill="#CF2A51"/>
</g>
</g>
<defs>
<clipPath id="clip0_15098_158883">
<rect width="41.69" height="46.93" fill="white" transform="translate(0.457031)"/>
</clipPath>
</defs>
</svg>
