<svg width="42" height="47" viewBox="0 0 42 47" fill="none" xmlns="http://www.w3.org/2000/svg">
<g id="Isolation_Mode" clip-path="url(#clip0_15098_158867)">
<g id="Group">
<path id="Vector" d="M33.2683 18.3151V5.77515H29.0883H12.8583H8.67828V18.3151H0.488281V30.8251H4.49828V34.7451H17.0383H24.9083H37.4483V30.8251H41.4583V18.3151H33.2683Z" fill="#217EC2"/>
<path id="Vector_2" d="M33.2683 18.3151V5.77515H29.0883H12.8583H8.67828V18.3151H0.488281V30.8251H4.49828V34.7451H17.0383H24.9083H37.4483V30.8251H41.4583V18.3151H33.2683Z" fill="#F26D84"/>
<path id="Vector_3" d="M29.5597 29.5052V38.2652H26.6397H15.3097H12.3897V29.5052H6.67969V20.7752H9.46969V18.0352H18.2297H23.7197H32.4697V20.7752H35.2697V29.5052H29.5597Z" fill="#EF3D47"/>
<g id="Group_2">
<path id="Vector_4" d="M16.5967 10.2952H14.1367V12.7552H16.5967V10.2952Z" fill="white"/>
<path id="Vector_5" d="M27.7959 10.2952H25.3359V12.7552H27.7959V10.2952Z" fill="white"/>
</g>
<g id="Group_3">
<path id="Vector_6" d="M8.44828 34.665V38.555H4.43828V42.505H0.488281V46.705H4.43828H8.63828V42.815H12.6483V38.615V34.665H8.44828Z" fill="#55C9E9"/>
<path id="Vector_7" d="M33.4969 34.665V38.555H37.5069V42.505H41.4569V46.705H37.5069H33.3069V42.815H29.2969V38.615V34.665H33.4969Z" fill="#55C9E9"/>
</g>
<g id="Group_4">
<path id="Vector_8" d="M15.1394 7.0751V4.8651H12.8594V2.6151H10.6094V0.225098H12.8594H15.2494V2.4351H17.5294V4.8251V7.0751H15.1394Z" fill="#CF2A51"/>
<path id="Vector_9" d="M26.808 7.0751V4.8651H29.088V2.6151H31.338V0.225098H29.088H26.698V2.4351H24.418V4.8251V7.0751H26.808Z" fill="#CF2A51"/>
</g>
</g>
<path id="Vector_10" d="M28.6364 22.4951H13.3164V24.4351H28.6364V22.4951Z" fill="white"/>
</g>
<defs>
<clipPath id="clip0_15098_158867">
<rect width="40.97" height="46.48" fill="white" transform="translate(0.488281 0.225098)"/>
</clipPath>
</defs>
</svg>
